<svg xmlns="http://www.w3.org/2000/svg" viewBox="0 0 1000 1250" width="1000" height="1250" role="img" aria-label="The Empire Babydoll Scoop Mini sewing pattern listing card">
  <rect width="1000" height="1250" fill="#ffffff"/>
  <rect x="18" y="18" width="964" height="1214" rx="10" fill="#ffffff" stroke="#d8c9ae" stroke-width="1.5"/>

  <!-- brand corner -->
  <g transform="translate(56 74)">
    <text x="0" y="0" font-family="'Didot','Bodoni 72',Georgia,serif" font-size="30" fill="#1f3a5f" letter-spacing="0.5">stitchu</text>
  </g>
  <g transform="translate(944 74)">
    <text x="0" y="0" text-anchor="end" font-family="Helvetica,Arial,sans-serif" font-size="14" letter-spacing="3" fill="#6b5c40">SEWING PATTERN</text>
  </g>
  <line x1="56" y1="104" x2="944" y2="104" stroke="#d8c9ae" stroke-width="1.5"/>

  <!-- product name (largest element, display serif) -->
  <text x="56" y="200" font-family="'Didot','Bodoni 72',Georgia,serif" font-size="54" font-weight="400" fill="#1f3a5f">The Empire Babydoll Scoop Mini</text>

  <!-- badges -->
  <g>
    <rect x="56" y="244" width="156" height="44" rx="22" fill="#1f3a5f"/>
    <text x="134" y="271.5" text-anchor="middle" font-family="Helvetica,Arial,sans-serif" font-size="17" font-weight="600" letter-spacing="1.2" fill="#ffffff">PDF Pattern</text>
  </g>
<g>
    <rect x="226" y="244" width="114" height="44" rx="22" fill="none" stroke="#1f3a5f" stroke-width="1.4"/>
    <text x="283" y="271" text-anchor="middle" font-family="Helvetica,Arial,sans-serif" font-size="15.5" font-weight="600" letter-spacing="1" fill="#1f3a5f">EU34-52</text>
  </g>
<g>
    <rect x="354" y="244" width="192" height="44" rx="22" fill="none" stroke="#1f3a5f" stroke-width="1.4"/>
    <text x="450" y="271" text-anchor="middle" font-family="Helvetica,Arial,sans-serif" font-size="15.5" font-weight="600" letter-spacing="1" fill="#1f3a5f">A0 · A4 · Letter</text>
  </g>

  <!-- illustration panel: the pattern pieces (cutting layout), no photo -->
  <rect x="56" y="322" width="888" height="720" rx="8" fill="#fff" stroke="#d8c9ae" stroke-width="1.4"/>
  <text x="500" y="1012" text-anchor="middle" font-family="Helvetica,Arial,sans-serif" font-size="13" letter-spacing="2.5" fill="#6b5c40">PATTERN PIECES</text>

  <svg x="96" y="377.904962406015" width="808" height="584.19007518797" viewBox="0 0 1330.0 961.6" preserveAspectRatio="xMidYMid meet"><path transform="translate(0.0 15.0)" d="M 0.0 -15.0 L 430.3 -15.0 L 430.3 585.3 L 0.0 585.3 Z" fill="none" stroke="#8fbfe8" stroke-width="1.1" stroke-dasharray="5 4"/><path transform="translate(0.0 15.0)" d="M 0.0 0.0 L 415.3 0.0 L 415.3 570.3 L 0.0 570.3 Z" fill="rgba(63,116,168,.06)" stroke="#1f3a5f" stroke-width="1.4"/><path transform="translate(0.0 15.0)" d="M 0.0 18.0 L 415.3 18.0" fill="none" stroke="#3f74a8" stroke-width="0.8" stroke-dasharray="3 3"/><path transform="translate(0.0 15.0)" d="M 415.3 0.0 L 403.3 0.0" fill="none" stroke="#1f3a5f" stroke-width="1.0"/><line transform="translate(0.0 15.0)" x1="50.0" y1="80.0" x2="50.0" y2="490.3" stroke="#3f74a8" stroke-width="0.9"/><text transform="translate(0.0 15.0)" x="4.0" y="-1.0" font-family="Helvetica,Arial,sans-serif" font-size="11" fill="#1f3a5f">Skirt Front</text><path transform="translate(457.3 15.0)" d="M -15.0 -15.0 L 430.3 -15.0 L 430.3 585.3 L -15.0 585.3 Z" fill="none" stroke="#8fbfe8" stroke-width="1.1" stroke-dasharray="5 4"/><path transform="translate(457.3 15.0)" d="M 0.0 0.0 L 415.3 0.0 L 415.3 570.3 L 0.0 570.3 Z" fill="rgba(63,116,168,.06)" stroke="#1f3a5f" stroke-width="1.4"/><path transform="translate(457.3 15.0)" d="M 0.0 18.0 L 415.3 18.0" fill="none" stroke="#3f74a8" stroke-width="0.8" stroke-dasharray="3 3"/><path transform="translate(457.3 15.0)" d="M 415.3 -6.0 L 403.3 -6.0 M 415.3 6.0 L 403.3 6.0 M 4.0 11.4 L 4.0 180.0 M 4.0 11.4 L 12.0 11.4 M 4.0 33.4 L 12.0 33.4 M 4.0 55.4 L 12.0 55.4 M 4.0 77.4 L 12.0 77.4 M 4.0 99.4 L 12.0 99.4 M 4.0 121.4 L 12.0 121.4 M 4.0 143.4 L 12.0 143.4 M 4.0 165.4 L 12.0 165.4" fill="none" stroke="#1f3a5f" stroke-width="1.0"/><line transform="translate(457.3 15.0)" x1="50.0" y1="80.0" x2="50.0" y2="490.3" stroke="#3f74a8" stroke-width="0.9"/><text transform="translate(457.3 15.0)" x="-11.0" y="-1.0" font-family="Helvetica,Arial,sans-serif" font-size="11" fill="#1f3a5f">Skirt Back</text><text transform="translate(457.3 15.0)" x="-11.0" y="12.0" font-family="Helvetica,Arial,sans-serif" font-size="9" fill="#3f74a8">invisible zipper (center back)</text><path transform="translate(899.5 20.3)" d="M 0.0 97.5 L 1.5 96.0 L 5.0 94.8 L 7.1 93.4 L 11.9 89.1 L 14.5 86.0 L 17.1 82.5 L 22.3 74.0 L 24.8 69.2 L 29.6 58.6 L 35.8 41.5 L 40.9 24.0 L 44.6 7.5 L 49.4 -20.3 L 186.8 29.9 L 194.0 33.3 L 200.9 38.3 L 206.9 44.2 L 212.1 50.8 L 216.5 57.9 L 220.4 65.5 L 223.8 73.5 L 226.8 81.9 L 232.0 99.3 L 236.5 117.5 L 246.2 161.8 L 250.3 177.5 L 252.5 184.5 L 257.1 196.5 L 259.5 201.1 L 265.9 211.1 L 246.7 285.2 L 157.7 296.9 L 95.9 303.9 L 67.3 306.5 L 40.5 308.4 L 23.7 309.2 L 0.0 309.8 L 0.0 118.1 Z" fill="none" stroke="#8fbfe8" stroke-width="1.1" stroke-dasharray="5 4"/><path transform="translate(899.5 20.3)" d="M 0.0 111.2 C 33.7 111.2 55.1 38.9 61.2 0.0 L 181.0 43.7 C 225.8 60.0 222.3 176.3 249.8 213.7 L 234.8 271.7 C 140.8 284.4 58.7 294.7 0.0 294.7 C 0.0 221.3 0.0 166.3 0.0 111.2 Z" fill="rgba(63,116,168,.06)" stroke="#1f3a5f" stroke-width="1.4"/><path transform="translate(899.5 20.3)" d="M 113.3 287.1 L 117.4 274.3 L 121.5 286.3" fill="none" stroke="#3f74a8" stroke-width="0.8" stroke-dasharray="3 3"/><path transform="translate(899.5 20.3)" d="M 249.8 294.7 L 237.8 294.7" fill="none" stroke="#1f3a5f" stroke-width="1.0"/><line transform="translate(899.5 20.3)" x1="40.0" y1="219.7" x2="40.0" y2="249.7" stroke="#3f74a8" stroke-width="0.9"/><text transform="translate(899.5 20.3)" x="4.0" y="-6.3" font-family="Helvetica,Arial,sans-serif" font-size="11" fill="#1f3a5f">Bodice Front</text><path transform="translate(15.0 629.9)" d="M -15.0 6.8 L 4.4 6.5 L 12.6 6.0 L 23.9 4.5 L 36.7 1.4 L 47.0 -2.4 L 54.6 -6.3 L 59.1 -9.4 L 67.3 -17.6 L 195.8 33.2 L 202.7 36.8 L 209.2 41.9 L 214.7 48.0 L 219.2 54.8 L 222.9 62.0 L 225.9 69.6 L 228.4 77.6 L 230.5 85.9 L 233.7 103.2 L 235.9 121.2 L 240.9 188.2 L 242.5 200.4 L 243.5 205.2 L 245.3 211.6 L 245.3 288.3 L 154.7 291.4 L 85.9 293.5 L 34.1 294.5 L -11.1 294.7 L -14.4 100.2 L -15.0 31.3 Z" fill="none" stroke="#8fbfe8" stroke-width="1.1" stroke-dasharray="5 4"/><path transform="translate(15.0 629.9)" d="M 0.0 21.6 C 39.0 21.6 63.8 7.6 70.9 0.0 L 189.6 46.9 C 231.1 63.3 218.1 177.0 230.3 213.7 L 230.3 273.8 C 139.7 277.1 60.4 279.7 3.7 279.7 C 2.2 176.5 0.0 99.0 0.0 21.6 Z" fill="rgba(63,116,168,.06)" stroke="#1f3a5f" stroke-width="1.4"/><path transform="translate(15.0 629.9)" d="M 108.3 277.8 L 117.0 185.3 L 125.7 277.3" fill="none" stroke="#3f74a8" stroke-width="0.8" stroke-dasharray="3 3"/><path transform="translate(15.0 629.9)" d="M 231.1 273.7 L 219.1 273.7 M 231.1 285.7 L 219.1 285.7 M 4.0 5.6 L 4.0 279.7 M 4.0 5.6 L 12.0 5.6 M 4.0 27.6 L 12.0 27.6 M 4.0 49.6 L 12.0 49.6 M 4.0 71.6 L 12.0 71.6 M 4.0 93.6 L 12.0 93.6 M 4.0 115.6 L 12.0 115.6 M 4.0 137.6 L 12.0 137.6 M 4.0 159.6 L 12.0 159.6 M 4.0 181.6 L 12.0 181.6 M 4.0 203.6 L 12.0 203.6 M 4.0 225.6 L 12.0 225.6 M 4.0 247.6 L 12.0 247.6 M 4.0 269.6 L 12.0 269.6" fill="none" stroke="#1f3a5f" stroke-width="1.0"/><line transform="translate(15.0 629.9)" x1="40.0" y1="219.7" x2="40.0" y2="251.8" stroke="#3f74a8" stroke-width="0.9"/><text transform="translate(15.0 629.9)" x="-11.0" y="-3.6" font-family="Helvetica,Arial,sans-serif" font-size="11" fill="#1f3a5f">Bodice Back</text><text transform="translate(15.0 629.9)" x="-11.0" y="9.4" font-family="Helvetica,Arial,sans-serif" font-size="9" fill="#3f74a8">invisible zipper (center back)</text><path transform="translate(0.0 936.6)" d="M 0.0 0.0 L 1170.1 0.0 L 1170.1 25.0 L 0.0 25.0 Z" fill="rgba(63,116,168,.06)" stroke="#1f3a5f" stroke-width="1.4"/><path transform="translate(0.0 936.6)" d="M 0.0 12.5 L 1170.1 12.5" fill="none" stroke="#3f74a8" stroke-width="0.8" stroke-dasharray="3 3"/><line transform="translate(0.0 936.6)" x1="545.1" y1="12.5" x2="625.1" y2="12.5" stroke="#3f74a8" stroke-width="0.9"/><text transform="translate(0.0 936.6)" x="4.0" y="14.0" font-family="Helvetica,Arial,sans-serif" font-size="11" fill="#1f3a5f">Bias binding (neckline + armholes)</text></svg>

  <!-- difficulty + footer -->
  <line x1="56" y1="1070" x2="944" y2="1070" stroke="#d8c9ae" stroke-width="1.5"/>
  <text x="56" y="1104" font-family="Helvetica,Arial,sans-serif" font-size="22" letter-spacing="2" fill="#3f74a8">★★★</text>
  <text x="152" y="1104" font-family="'Didot','Bodoni 72',Georgia,serif" font-size="24" fill="#1f3a5f">Intermediate</text>
  <text x="944" y="1104" text-anchor="end" font-family="Helvetica,Arial,sans-serif" font-size="15" letter-spacing="1" fill="#6b5c40">Instant Download · 5 pieces</text>
</svg>