0
SECTION
2
HEADER
9
$ACADVER
1
AC1009
9
$INSUNITS
70
4
9
$EXTMIN
10
0.0000
20
-423.4097
9
$EXTMAX
10
990.4703
20
8.0000
0
ENDSEC
0
SECTION
2
TABLES
0
TABLE
2
LAYER
70
6
0
LAYER
2
1
70
0
62
7
6
CONTINUOUS
0
LAYER
2
8
70
0
62
1
6
CONTINUOUS
0
LAYER
2
7
70
0
62
3
6
CONTINUOUS
0
LAYER
2
4
70
0
62
5
6
CONTINUOUS
0
LAYER
2
11
70
0
62
2
6
CONTINUOUS
0
LAYER
2
15
70
0
62
4
6
CONTINUOUS
0
ENDTAB
0
ENDSEC
0
SECTION
2
ENTITIES
0
POLYLINE
8
1
66
1
70
1
0
VERTEX
8
1
10
12.7945
20
-318.4097
30
0.0000
0
VERTEX
8
1
10
12.0181
20
-272.3997
30
0.0000
0
VERTEX
8
1
10
10.1789
20
-230.1849
30
0.0000
0
VERTEX
8
1
10
7.6748
20
-192.0449
30
0.0000
0
VERTEX
8
1
10
1.9826
20
-122.4560
30
0.0000
0
VERTEX
8
1
10
0.0000
20
-92.0946
30
0.0000
0
VERTEX
8
1
10
27.9088
20
-85.4258
30
0.0000
0
VERTEX
8
1
10
53.0238
20
-80.2882
30
0.0000
0
VERTEX
8
1
10
79.4843
20
-75.7424
30
0.0000
0
VERTEX
8
1
10
106.9160
20
-71.8389
30
0.0000
0
VERTEX
8
1
10
134.9394
20
-68.6318
30
0.0000
0
VERTEX
8
1
10
163.1732
20
-66.1774
30
0.0000
0
VERTEX
8
1
10
191.2363
20
-64.5340
30
0.0000
0
VERTEX
8
1
10
225.7819
20
-63.7209
30
0.0000
0
VERTEX
8
1
10
472.1695
20
-0.0000
30
0.0000
0
VERTEX
8
1
10
478.7411
20
-46.1180
30
0.0000
0
VERTEX
8
1
10
482.2222
20
-74.6078
30
0.0000
0
VERTEX
8
1
10
486.2811
20
-115.4130
30
0.0000
0
VERTEX
8
1
10
489.1326
20
-154.2013
30
0.0000
0
VERTEX
8
1
10
490.9888
20
-191.3076
30
0.0000
0
VERTEX
8
1
10
492.0633
20
-227.0666
30
0.0000
0
VERTEX
8
1
10
492.5701
20
-261.8149
30
0.0000
0
VERTEX
8
1
10
492.7352
20
-318.4097
30
0.0000
0
SEQEND
0
TEXT
8
15
10
0.0000
20
8.0000
30
0.0000
40
12.0000
1
Front
0
POLYLINE
8
1
66
1
70
1
0
VERTEX
8
1
10
510.5296
20
-318.4097
30
0.0000
0
VERTEX
8
1
10
509.7533
20
-272.3997
30
0.0000
0
VERTEX
8
1
10
507.9141
20
-230.1849
30
0.0000
0
VERTEX
8
1
10
505.4099
20
-192.0449
30
0.0000
0
VERTEX
8
1
10
499.7178
20
-122.4560
30
0.0000
0
VERTEX
8
1
10
497.7352
20
-92.0946
30
0.0000
0
VERTEX
8
1
10
525.6439
20
-85.4258
30
0.0000
0
VERTEX
8
1
10
550.7590
20
-80.2882
30
0.0000
0
VERTEX
8
1
10
577.2195
20
-75.7424
30
0.0000
0
VERTEX
8
1
10
604.6511
20
-71.8389
30
0.0000
0
VERTEX
8
1
10
632.6746
20
-68.6318
30
0.0000
0
VERTEX
8
1
10
660.9084
20
-66.1774
30
0.0000
0
VERTEX
8
1
10
688.9714
20
-64.5340
30
0.0000
0
VERTEX
8
1
10
723.5170
20
-63.7209
30
0.0000
0
VERTEX
8
1
10
969.9047
20
-0.0000
30
0.0000
0
VERTEX
8
1
10
976.4762
20
-46.1180
30
0.0000
0
VERTEX
8
1
10
979.9573
20
-74.6078
30
0.0000
0
VERTEX
8
1
10
984.0163
20
-115.4130
30
0.0000
0
VERTEX
8
1
10
986.8677
20
-154.2013
30
0.0000
0
VERTEX
8
1
10
988.7240
20
-191.3076
30
0.0000
0
VERTEX
8
1
10
989.7985
20
-227.0666
30
0.0000
0
VERTEX
8
1
10
990.3053
20
-261.8149
30
0.0000
0
VERTEX
8
1
10
990.4703
20
-318.4097
30
0.0000
0
SEQEND
0
TEXT
8
15
10
497.7352
20
8.0000
30
0.0000
40
12.0000
1
Back
0
POLYLINE
8
1
66
1
70
1
0
VERTEX
8
1
10
0.0000
20
-323.4097
30
0.0000
0
VERTEX
8
1
10
407.0000
20
-323.4097
30
0.0000
0
VERTEX
8
1
10
407.0000
20
-423.4097
30
0.0000
0
VERTEX
8
1
10
0.0000
20
-423.4097
30
0.0000
0
SEQEND
0
TEXT
8
15
10
0.0000
20
-315.4097
30
0.0000
40
12.0000
1
Waistband
0
ENDSEC
0
EOF
