<svg xmlns="http://www.w3.org/2000/svg" viewBox="0 0 1430.0 990.6" width="100%" role="img"><rect width="1430.0" height="990.6" fill="#fff"/><text x="400.0" y="30" text-anchor="middle" font-family="Helvetica,Arial,sans-serif" font-size="26" font-weight="600" letter-spacing="2" fill="#1f3a5f">FRONT</text><g transform="translate(20 46)"><path transform="translate(0.0 15.0)" d="M 0.0 -15.0 L 430.3 -15.0 L 430.3 585.3 L 0.0 585.3 Z" fill="none" stroke="#8fbfe8" stroke-width="1.1" stroke-dasharray="5 4"/><path transform="translate(0.0 15.0)" d="M 0.0 0.0 L 415.3 0.0 L 415.3 570.3 L 0.0 570.3 Z" fill="rgba(63,116,168,.06)" stroke="#1f3a5f" stroke-width="1.4"/><path transform="translate(0.0 15.0)" d="M 0.0 18.0 L 415.3 18.0" fill="none" stroke="#3f74a8" stroke-width="0.8" stroke-dasharray="3 3"/><path transform="translate(0.0 15.0)" d="M 415.3 0.0 L 403.3 0.0" fill="none" stroke="#1f3a5f" stroke-width="1.0"/><line transform="translate(0.0 15.0)" x1="50.0" y1="80.0" x2="50.0" y2="490.3" stroke="#3f74a8" stroke-width="0.9"/><text transform="translate(0.0 15.0)" x="4.0" y="-1.0" font-family="Helvetica,Arial,sans-serif" font-size="11" fill="#1f3a5f">Skirt Front</text><path transform="translate(442.3 20.3)" d="M 0.0 97.5 L 1.5 96.0 L 5.0 94.8 L 7.1 93.4 L 11.9 89.1 L 14.5 86.0 L 17.1 82.5 L 22.3 74.0 L 24.8 69.2 L 29.6 58.6 L 35.8 41.5 L 40.9 24.0 L 44.6 7.5 L 49.4 -20.3 L 196.7 33.4 L 195.6 50.4 L 195.8 55.8 L 196.6 61.8 L 199.5 74.8 L 204.3 88.9 L 210.6 103.9 L 217.9 119.2 L 225.9 134.5 L 249.8 178.2 L 256.5 191.2 L 261.9 203.3 L 265.4 212.9 L 246.7 285.2 L 157.7 296.9 L 95.9 303.9 L 67.3 306.5 L 40.5 308.4 L 23.7 309.2 L 0.0 309.8 L 0.0 118.1 Z" fill="none" stroke="#8fbfe8" stroke-width="1.1" stroke-dasharray="5 4"/><path transform="translate(442.3 20.3)" d="M 0.0 111.2 C 33.7 111.2 55.1 38.9 61.2 0.0 L 181.0 43.7 C 175.0 94.7 237.4 176.3 249.8 213.7 L 234.8 271.7 C 140.8 284.4 58.7 294.7 0.0 294.7 C 0.0 221.3 0.0 166.3 0.0 111.2 Z" fill="rgba(63,116,168,.06)" stroke="#1f3a5f" stroke-width="1.4"/><path transform="translate(442.3 20.3)" d="M 113.3 287.1 L 117.4 274.3 L 121.5 286.3" fill="none" stroke="#3f74a8" stroke-width="0.8" stroke-dasharray="3 3"/><path transform="translate(442.3 20.3)" d="M 249.8 294.7 L 237.8 294.7" fill="none" stroke="#1f3a5f" stroke-width="1.0"/><line transform="translate(442.3 20.3)" x1="40.0" y1="219.7" x2="40.0" y2="249.7" stroke="#3f74a8" stroke-width="0.9"/><text transform="translate(442.3 20.3)" x="4.0" y="-6.3" font-family="Helvetica,Arial,sans-serif" font-size="11" fill="#1f3a5f">Bodice Front</text><path transform="translate(0.0 612.3)" d="M 0.0 0.0 L 439.6 0.0 L 439.6 25.0 L 0.0 25.0 Z" fill="rgba(63,116,168,.06)" stroke="#1f3a5f" stroke-width="1.4"/><path transform="translate(0.0 612.3)" d="M 0.0 12.5 L 439.6 12.5" fill="none" stroke="#3f74a8" stroke-width="0.8" stroke-dasharray="3 3"/><line transform="translate(0.0 612.3)" x1="179.8" y1="12.5" x2="259.8" y2="12.5" stroke="#3f74a8" stroke-width="0.9"/><text transform="translate(0.0 612.3)" x="4.0" y="14.0" font-family="Helvetica,Arial,sans-serif" font-size="11" fill="#1f3a5f">Bias binding (neckline)</text><path transform="translate(0.0 649.3)" d="M 0.0 0.0 L 735.5 0.0 L 735.5 25.0 L 0.0 25.0 Z" fill="rgba(63,116,168,.06)" stroke="#1f3a5f" stroke-width="1.4"/><path transform="translate(0.0 649.3)" d="M 0.0 12.5 L 735.5 12.5" fill="none" stroke="#3f74a8" stroke-width="0.8" stroke-dasharray="3 3"/><line transform="translate(0.0 649.3)" x1="327.8" y1="12.5" x2="407.8" y2="12.5" stroke="#3f74a8" stroke-width="0.9"/><text transform="translate(0.0 649.3)" x="4.0" y="14.0" font-family="Helvetica,Arial,sans-serif" font-size="11" fill="#1f3a5f">Bias binding (armholes)</text></g><text x="1125.0" y="30" text-anchor="middle" font-family="Helvetica,Arial,sans-serif" font-size="26" font-weight="600" letter-spacing="2" fill="#1f3a5f">BACK</text><g transform="translate(840 46)"><path transform="translate(15.0 15.0)" d="M -15.0 -15.0 L 430.3 -15.0 L 430.3 585.3 L -15.0 585.3 Z" fill="none" stroke="#8fbfe8" stroke-width="1.1" stroke-dasharray="5 4"/><path transform="translate(15.0 15.0)" d="M 0.0 0.0 L 415.3 0.0 L 415.3 570.3 L 0.0 570.3 Z" fill="rgba(63,116,168,.06)" stroke="#1f3a5f" stroke-width="1.4"/><path transform="translate(15.0 15.0)" d="M 0.0 18.0 L 415.3 18.0" fill="none" stroke="#3f74a8" stroke-width="0.8" stroke-dasharray="3 3"/><path transform="translate(15.0 15.0)" d="M 415.3 -6.0 L 403.3 -6.0 M 415.3 6.0 L 403.3 6.0 M 4.0 11.4 L 4.0 180.0 M 4.0 11.4 L 12.0 11.4 M 4.0 33.4 L 12.0 33.4 M 4.0 55.4 L 12.0 55.4 M 4.0 77.4 L 12.0 77.4 M 4.0 99.4 L 12.0 99.4 M 4.0 121.4 L 12.0 121.4 M 4.0 143.4 L 12.0 143.4 M 4.0 165.4 L 12.0 165.4" fill="none" stroke="#1f3a5f" stroke-width="1.0"/><line transform="translate(15.0 15.0)" x1="50.0" y1="80.0" x2="50.0" y2="490.3" stroke="#3f74a8" stroke-width="0.9"/><text transform="translate(15.0 15.0)" x="-11.0" y="-1.0" font-family="Helvetica,Arial,sans-serif" font-size="11" fill="#1f3a5f">Skirt Back</text><text transform="translate(15.0 15.0)" x="-11.0" y="12.0" font-family="Helvetica,Arial,sans-serif" font-size="9" fill="#3f74a8">invisible zipper (center back)</text><path transform="translate(15.0 629.9)" d="M -15.0 6.8 L 4.4 6.5 L 12.6 6.0 L 23.9 4.5 L 36.7 1.4 L 47.0 -2.4 L 54.6 -6.3 L 59.1 -9.4 L 67.3 -17.6 L 204.6 36.6 L 204.6 52.8 L 205.6 65.1 L 207.8 78.6 L 210.9 93.0 L 214.8 108.0 L 219.3 123.2 L 239.6 187.9 L 242.9 200.2 L 245.3 212.3 L 245.3 288.3 L 154.7 291.4 L 85.9 293.5 L 34.1 294.5 L -11.1 294.7 L -14.4 100.2 L -15.0 31.3 Z" fill="none" stroke="#8fbfe8" stroke-width="1.1" stroke-dasharray="5 4"/><path transform="translate(15.0 629.9)" d="M 0.0 21.6 C 39.0 21.6 63.8 7.6 70.9 0.0 L 189.6 46.9 C 188.3 96.9 224.5 177.0 230.3 213.7 L 230.3 273.8 C 139.7 277.1 60.4 279.7 3.7 279.7 C 2.2 176.5 0.0 99.0 0.0 21.6 Z" fill="rgba(63,116,168,.06)" stroke="#1f3a5f" stroke-width="1.4"/><path transform="translate(15.0 629.9)" d="M 108.3 277.8 L 117.0 185.3 L 125.7 277.3" fill="none" stroke="#3f74a8" stroke-width="0.8" stroke-dasharray="3 3"/><path transform="translate(15.0 629.9)" d="M 230.3 273.7 L 218.3 273.7 M 230.3 285.7 L 218.3 285.7 M 4.0 5.6 L 4.0 279.7 M 4.0 5.6 L 12.0 5.6 M 4.0 27.6 L 12.0 27.6 M 4.0 49.6 L 12.0 49.6 M 4.0 71.6 L 12.0 71.6 M 4.0 93.6 L 12.0 93.6 M 4.0 115.6 L 12.0 115.6 M 4.0 137.6 L 12.0 137.6 M 4.0 159.6 L 12.0 159.6 M 4.0 181.6 L 12.0 181.6 M 4.0 203.6 L 12.0 203.6 M 4.0 225.6 L 12.0 225.6 M 4.0 247.6 L 12.0 247.6 M 4.0 269.6 L 12.0 269.6" fill="none" stroke="#1f3a5f" stroke-width="1.0"/><line transform="translate(15.0 629.9)" x1="40.0" y1="219.7" x2="40.0" y2="251.8" stroke="#3f74a8" stroke-width="0.9"/><text transform="translate(15.0 629.9)" x="-11.0" y="-3.6" font-family="Helvetica,Arial,sans-serif" font-size="11" fill="#1f3a5f">Bodice Back</text><text transform="translate(15.0 629.9)" x="-11.0" y="9.4" font-family="Helvetica,Arial,sans-serif" font-size="9" fill="#3f74a8">invisible zipper (center back)</text></g><line x1="810.0" y1="46" x2="810.0" y2="970.6" stroke="#d8e2ee" stroke-width="1"/></svg>