<svg data-ops="10" xmlns="http://www.w3.org/2000/svg" viewBox="-20.000 -40.000 1717.440 1030.000" data-scale="1:1" data-unit-mm="1" data-graf="taban-elbise" data-body="croquis36" data-size="croquis36" data-panel="4" data-gorunum="2" data-y-waist="390.000" data-y-bust="254.900" data-y-hip="593.000">
  <title>taban-elbise flat @ croquis36</title>
  <rect x="-20.000" y="-40.000" width="1717.440" height="1030.000" fill="#ffffff"/>
  <g id="croquis" fill="none" stroke="none">
    <g data-view="front" data-eksen="cf" transform="translate(404.360 0)">
      <path data-rol="siluet" data-view="front" data-kaynak="croquis-landmark" data-manken-bust-y="254.900" data-manken-koltukalti-y="243.800" data-manken-bel-y="390.000" data-manken-kalca-y="593.000" data-omuz-uc="183.800 49.000" data-manken-bel-yarim-mm="170.500" d="M 49.100 0.000 L 183.800 49.000 L 210.000 243.800 L 210.000 254.900 L 181.400 312.900 L 170.500 390.000 L 195.000 490.000 L 225.000 593.000 L -225.000 593.000 L -195.000 490.000 L -170.500 390.000 L -181.400 312.900 L -210.000 254.900 L -210.000 243.800 L -183.800 49.000 L -49.100 0.000 Z"/>
    </g>
    <g data-view="back" data-eksen="cb" transform="translate(1273.080 0)">
      <path data-rol="siluet" data-view="back" data-kaynak="croquis-landmark" data-manken-bust-y="254.900" data-manken-koltukalti-y="243.800" data-manken-bel-y="390.000" data-manken-kalca-y="593.000" data-omuz-uc="183.800 49.000" data-manken-bel-yarim-mm="170.500" d="M 49.100 0.000 L 183.800 49.000 L 210.000 243.800 L 210.000 254.900 L 181.400 312.900 L 170.500 390.000 L 195.000 490.000 L 225.000 593.000 L -225.000 593.000 L -195.000 490.000 L -170.500 390.000 L -181.400 312.900 L -210.000 254.900 L -210.000 243.800 L -183.800 49.000 L -49.100 0.000 Z"/>
    </g>
  </g>
  <g id="outline" fill="none" stroke="#111111" stroke-width="4.294" stroke-linejoin="round" stroke-linecap="round">
    <g data-view="front" data-eksen="cf" transform="translate(404.360 0)">
      <path data-panel="on_beden" data-edge="side_front" data-tur="seam" d="M 188.118 390.000 L 225.000 243.800"/>
      <path data-panel="on_beden" data-edge="side_front" data-tur="seam" d="M -188.118 390.000 L -225.000 243.800"/>
      <path data-panel="on_beden" data-edge="armhole_front.1" data-tur="seam" d="M 225.000 243.800 L 404.360 283.430"/>
      <path data-panel="on_beden" data-edge="armhole_front.1" data-tur="seam" d="M -225.000 243.800 L -404.360 283.430"/>
      <path data-panel="on_beden" data-edge="armhole_front.2" data-tur="cut" d="M 404.360 283.430 L 404.360 147.070"/>
      <path data-panel="on_beden" data-edge="armhole_front.2" data-tur="cut" d="M -404.360 283.430 L -404.360 147.070"/>
      <path data-panel="on_beden" data-edge="shoulder" data-tur="seam" d="M 404.360 147.070 L 49.100 0.000"/>
      <path data-panel="on_beden" data-edge="shoulder" data-tur="seam" d="M -404.360 147.070 L -49.100 0.000"/>
      <path data-panel="on_beden" data-edge="neck_front" data-tur="cut" d="M 49.100 0.000 C 49.100 14.912 27.117 27.000 0.000 27.000"/>
      <path data-panel="on_beden" data-edge="neck_front" data-tur="cut" d="M -49.100 0.000 C -49.100 14.912 -27.117 27.000 0.000 27.000"/>
      <path data-panel="on_etek" data-edge="hem_front" data-tur="cut" d="M 0.000 970.000 L 237.500 970.000"/>
      <path data-panel="on_etek" data-edge="hem_front" data-tur="cut" d="M 0.000 970.000 L -237.500 970.000"/>
      <path data-panel="on_etek" data-edge="side_front.1" data-tur="seam" d="M 237.500 970.000 L 237.500 593.000"/>
      <path data-panel="on_etek" data-edge="side_front.1" data-tur="seam" d="M -237.500 970.000 L -237.500 593.000"/>
      <path data-panel="on_etek" data-edge="side_front.2" data-tur="seam" d="M 237.500 593.000 L 182.686 394.687"/>
      <path data-panel="on_etek" data-edge="side_front.2" data-tur="seam" d="M -237.500 593.000 L -182.686 394.687"/>
    </g>
    <g data-view="back" data-eksen="cb" transform="translate(1273.080 0)">
      <path data-panel="arka_beden" data-edge="side_back" data-tur="seam" d="M 190.216 390.000 L 225.000 243.800"/>
      <path data-panel="arka_beden" data-edge="side_back" data-tur="seam" d="M -190.216 390.000 L -225.000 243.800"/>
      <path data-panel="arka_beden" data-edge="armhole_back.1" data-tur="seam" d="M 225.000 243.800 L 404.360 283.430"/>
      <path data-panel="arka_beden" data-edge="armhole_back.1" data-tur="seam" d="M -225.000 243.800 L -404.360 283.430"/>
      <path data-panel="arka_beden" data-edge="armhole_back.2" data-tur="cut" d="M 404.360 283.430 L 404.360 147.070"/>
      <path data-panel="arka_beden" data-edge="armhole_back.2" data-tur="cut" d="M -404.360 283.430 L -404.360 147.070"/>
      <path data-panel="arka_beden" data-edge="shoulder" data-tur="seam" d="M 404.360 147.070 L 49.100 0.000"/>
      <path data-panel="arka_beden" data-edge="shoulder" data-tur="seam" d="M -404.360 147.070 L -49.100 0.000"/>
      <path data-panel="arka_beden" data-edge="neck_back" data-tur="cut" d="M 49.100 0.000 C 49.100 -11.046 27.117 -20.000 0.000 -20.000"/>
      <path data-panel="arka_beden" data-edge="neck_back" data-tur="cut" d="M -49.100 0.000 C -49.100 -11.046 -27.117 -20.000 0.000 -20.000"/>
      <path data-panel="arka_etek" data-edge="hem_back" data-tur="cut" d="M 0.000 970.000 L 237.500 970.000"/>
      <path data-panel="arka_etek" data-edge="hem_back" data-tur="cut" d="M 0.000 970.000 L -237.500 970.000"/>
      <path data-panel="arka_etek" data-edge="side_back.1" data-tur="seam" d="M 237.500 970.000 L 237.500 593.000"/>
      <path data-panel="arka_etek" data-edge="side_back.1" data-tur="seam" d="M -237.500 970.000 L -237.500 593.000"/>
      <path data-panel="arka_etek" data-edge="side_back.2" data-tur="seam" d="M 237.500 593.000 L 203.981 390.000"/>
      <path data-panel="arka_etek" data-edge="side_back.2" data-tur="seam" d="M -237.500 593.000 L -203.981 390.000"/>
    </g>
  </g>
  <g id="seams" fill="none" stroke="#111111" stroke-width="2.147" stroke-linejoin="round" stroke-linecap="round">
    <g data-view="front" data-eksen="cf" transform="translate(404.360 0)">
      <path data-panel="on_beden" data-edge="waist_front.1" data-tur="seam" d="M 0.000 390.000 L 64.641 390.000"/>
      <path data-panel="on_beden" data-edge="waist_front.1" data-tur="seam" d="M 0.000 390.000 L -64.641 390.000"/>
      <path data-panel="on_beden" data-edge="dart_on_beden.1" data-tur="pens_agzi" d="M 64.641 390.000 L 81.508 390.000"/>
      <path data-panel="on_beden" data-edge="dart_on_beden.1" data-tur="pens_agzi" d="M -64.641 390.000 L -81.508 390.000"/>
      <path data-panel="on_beden" data-edge="waist_front.2" data-tur="seam" d="M 81.508 390.000 L 188.118 390.000"/>
      <path data-panel="on_beden" data-edge="waist_front.2" data-tur="seam" d="M -81.508 390.000 L -188.118 390.000"/>
      <path data-panel="on_etek" data-edge="waist_front.1" data-tur="seam" d="M 182.686 394.687 L 96.351 390.000"/>
      <path data-panel="on_etek" data-edge="waist_front.1" data-tur="seam" d="M -182.686 394.687 L -96.351 390.000"/>
      <path data-panel="on_etek" data-edge="dart_on_etek.1" data-tur="pens_agzi" d="M 96.351 390.000 L 84.915 390.000"/>
      <path data-panel="on_etek" data-edge="dart_on_etek.1" data-tur="pens_agzi" d="M -96.351 390.000 L -84.915 390.000"/>
      <path data-panel="on_etek" data-edge="waist_front.2" data-tur="seam" d="M 84.915 390.000 L 0.000 390.000"/>
      <path data-panel="on_etek" data-edge="waist_front.2" data-tur="seam" d="M -84.915 390.000 L 0.000 390.000"/>
    </g>
    <g data-view="back" data-eksen="cb" transform="translate(1273.080 0)">
      <path data-panel="arka_beden" data-edge="cb" data-tur="seam" d="M 0.000 -20.000 L 0.000 390.000"/>
      <path data-panel="arka_beden" data-edge="cb" data-tur="seam" d="M 0.000 -20.000 L 0.000 390.000"/>
      <path data-panel="arka_beden" data-edge="waist_back.1" data-tur="seam" d="M 0.000 390.000 L 64.641 390.000"/>
      <path data-panel="arka_beden" data-edge="waist_back.1" data-tur="seam" d="M 0.000 390.000 L -64.641 390.000"/>
      <path data-panel="arka_beden" data-edge="dart_arka_beden.1" data-tur="pens_agzi" d="M 64.641 390.000 L 83.606 390.000"/>
      <path data-panel="arka_beden" data-edge="dart_arka_beden.1" data-tur="pens_agzi" d="M -64.641 390.000 L -83.606 390.000"/>
      <path data-panel="arka_beden" data-edge="waist_back.2" data-tur="seam" d="M 83.606 390.000 L 190.216 390.000"/>
      <path data-panel="arka_beden" data-edge="waist_back.2" data-tur="seam" d="M -83.606 390.000 L -190.216 390.000"/>
      <path data-panel="arka_etek" data-edge="cb" data-tur="seam" d="M 0.000 390.000 L 0.000 970.000"/>
      <path data-panel="arka_etek" data-edge="cb" data-tur="seam" d="M 0.000 390.000 L 0.000 970.000"/>
      <path data-panel="arka_etek" data-edge="waist_back.1" data-tur="seam" d="M 203.981 390.000 L 96.351 390.000"/>
      <path data-panel="arka_etek" data-edge="waist_back.1" data-tur="seam" d="M -203.981 390.000 L -96.351 390.000"/>
      <path data-panel="arka_etek" data-edge="dart_arka_etek.1" data-tur="pens_agzi" d="M 96.351 390.000 L 63.620 390.000"/>
      <path data-panel="arka_etek" data-edge="dart_arka_etek.1" data-tur="pens_agzi" d="M -96.351 390.000 L -63.620 390.000"/>
      <path data-panel="arka_etek" data-edge="waist_back.2" data-tur="seam" d="M 63.620 390.000 L 0.000 390.000"/>
      <path data-panel="arka_etek" data-edge="waist_back.2" data-tur="seam" d="M -63.620 390.000 L 0.000 390.000"/>
    </g>
  </g>
  <g id="topstitch" fill="none" stroke="#111111" stroke-width="1.073" stroke-linejoin="round" stroke-linecap="round" stroke-dasharray="14.312 8.587">
    <g data-view="front" data-eksen="cf" transform="translate(404.360 0)">
      <path data-panel="on_beden" data-edge="armhole_front.2" data-tur="ustdikis" d="M 392.910 283.430 L 392.910 147.070"/>
      <path data-panel="on_beden" data-edge="armhole_front.2" data-tur="ustdikis" d="M -392.910 283.430 L -392.910 147.070"/>
      <path data-panel="on_beden" data-edge="neck_front" data-tur="ustdikis" d="M 54.617 10.033 C 54.617 24.944 32.634 37.033 5.517 37.033"/>
      <path data-panel="on_beden" data-edge="neck_front" data-tur="ustdikis" d="M -54.617 10.033 C -54.617 24.944 -32.634 37.033 -5.517 37.033"/>
      <path data-panel="on_etek" data-edge="hem_front" data-tur="ustdikis" d="M 0.000 958.550 L 237.500 958.550"/>
      <path data-panel="on_etek" data-edge="hem_front" data-tur="ustdikis" d="M 0.000 958.550 L -237.500 958.550"/>
    </g>
    <g data-view="back" data-eksen="cb" transform="translate(1273.080 0)">
      <path data-panel="arka_beden" data-edge="armhole_back.2" data-tur="ustdikis" d="M 392.910 283.430 L 392.910 147.070"/>
      <path data-panel="arka_beden" data-edge="armhole_back.2" data-tur="ustdikis" d="M -392.910 283.430 L -392.910 147.070"/>
      <path data-panel="arka_beden" data-edge="neck_back" data-tur="ustdikis" d="M 44.781 10.604 C 44.781 -0.442 22.798 -9.396 -4.319 -9.396"/>
      <path data-panel="arka_beden" data-edge="neck_back" data-tur="ustdikis" d="M -44.781 10.604 C -44.781 -0.442 -22.798 -9.396 4.319 -9.396"/>
      <path data-panel="arka_etek" data-edge="hem_back" data-tur="ustdikis" d="M 0.000 958.550 L 237.500 958.550"/>
      <path data-panel="arka_etek" data-edge="hem_back" data-tur="ustdikis" d="M 0.000 958.550 L -237.500 958.550"/>
    </g>
  </g>
  <g id="details" fill="none" stroke="#111111" stroke-width="2.147" stroke-linejoin="round" stroke-linecap="round">
    <g data-view="front" data-eksen="cf" transform="translate(404.360 0)">
      <path data-panel="on_beden" data-edge="dart_on_beden.1" data-tur="pens" d="M 73.075 390.000 L 73.075 243.800"/>
      <path data-panel="on_beden" data-edge="dart_on_beden.1" data-tur="pens" d="M -73.075 390.000 L -73.075 243.800"/>
      <path data-panel="on_etek" data-edge="dart_on_etek.1" data-tur="pens" d="M 90.633 390.000 L 90.633 593.000"/>
      <path data-panel="on_etek" data-edge="dart_on_etek.1" data-tur="pens" d="M -90.633 390.000 L -90.633 593.000"/>
    </g>
    <g data-view="back" data-eksen="cb" transform="translate(1273.080 0)">
      <path data-panel="arka_beden" data-edge="dart_arka_beden.1" data-tur="pens" d="M 74.123 390.000 L 74.123 243.800"/>
      <path data-panel="arka_beden" data-edge="dart_arka_beden.1" data-tur="pens" d="M -74.123 390.000 L -74.123 243.800"/>
      <path data-panel="arka_etek" data-edge="dart_arka_etek.1" data-tur="pens" d="M 79.985 390.000 L 79.985 593.000"/>
      <path data-panel="arka_etek" data-edge="dart_arka_etek.1" data-tur="pens" d="M -79.985 390.000 L -79.985 593.000"/>
    </g>
  </g>
</svg>
