<svg xmlns="http://www.w3.org/2000/svg" viewBox="0 0 688.0 494.0" width="100%" role="img"><rect width="688.0" height="494.0" fill="#fff"/><text x="170.0" y="28" text-anchor="middle" font-family="Helvetica,Arial,sans-serif" font-size="22" font-weight="600" letter-spacing="3" fill="#1f3a5f">FRONT</text><g transform="translate(24.0 40)"><g transform="translate(146.0 20)"><path d="M 0 40.0 C 11.2 40.0 40.0 23.8 40.0 4.0 L 78.0 16.2 C 78.0 42.2 86.0 66.0 74.0 92.0 C 72.0 104.0 60.0 128.0 60.0 150.0 C 60.9 220.0 65.2 365.0 67.2 400.0 Q 33.6 410.0 0.0 410.0 Q -33.6 410.0 -67.2 400.0 C -65.2 365.0 -60.9 220.0 -60.0 150.0 C -60.0 128.0 -72.0 104.0 -74.0 92.0 C -86.0 66.0 -78.0 42.2 -78.0 16.2 L -40.0 4.0 C -40.0 23.8 -11.2 40.0 0.0 40.0 Z" fill="#fbfcfe" stroke="#1f3a5f" stroke-width="2" stroke-linejoin="round" stroke-linecap="round"/><g><path d="M 78.0 16.2 C 97.2 8.2 121.2 22.2 126.0 91.2 L 122.0 166.2 Q 100.0 174.2 84.0 148.2 L 74.0 92.0 " fill="none" stroke="#1f3a5f" stroke-width="2" stroke-linejoin="round" stroke-linecap="round"/><g transform="scale(-1,1)"><path d="M 78.0 16.2 C 97.2 8.2 121.2 22.2 126.0 91.2 L 122.0 166.2 Q 100.0 174.2 84.0 148.2 L 74.0 92.0 " fill="none" stroke="#1f3a5f" stroke-width="2" stroke-linejoin="round" stroke-linecap="round"/></g></g><path d="M -40.0 32.0 Q 0 14.0 40.0 32.0" fill="none" stroke="#1f3a5f" stroke-width="2" stroke-linecap="round"/><line x1="-61.2" y1="150.0" x2="61.2" y2="150.0" stroke="#5c7aa0" stroke-width="1" stroke-dasharray="7 4"/><path d="M -36.0 20.0 C -45.9 70.0 -45.9 120.0 -28.2 400.0" fill="none" stroke="#5c7aa0" stroke-width="1" stroke-linecap="round"/><path d="M 36.0 20.0 C 45.9 70.0 45.9 120.0 28.2 400.0" fill="none" stroke="#5c7aa0" stroke-width="1" stroke-linecap="round"/><line x1="-66.6" y1="47.0" x2="-66.6" y2="61.0" stroke="#5c7aa0" stroke-width="0.9"/><line x1="-53.6" y1="47.0" x2="-53.6" y2="61.0" stroke="#5c7aa0" stroke-width="0.9"/><line x1="-40.6" y1="47.0" x2="-40.6" y2="61.0" stroke="#5c7aa0" stroke-width="0.9"/><line x1="-27.6" y1="47.0" x2="-27.6" y2="61.0" stroke="#5c7aa0" stroke-width="0.9"/><line x1="-14.6" y1="47.0" x2="-14.6" y2="61.0" stroke="#5c7aa0" stroke-width="0.9"/><line x1="-1.6" y1="47.0" x2="-1.6" y2="61.0" stroke="#5c7aa0" stroke-width="0.9"/><line x1="11.4" y1="47.0" x2="11.4" y2="61.0" stroke="#5c7aa0" stroke-width="0.9"/><line x1="24.4" y1="47.0" x2="24.4" y2="61.0" stroke="#5c7aa0" stroke-width="0.9"/><line x1="37.4" y1="47.0" x2="37.4" y2="61.0" stroke="#5c7aa0" stroke-width="0.9"/><line x1="50.4" y1="47.0" x2="50.4" y2="61.0" stroke="#5c7aa0" stroke-width="0.9"/><line x1="63.4" y1="47.0" x2="63.4" y2="61.0" stroke="#5c7aa0" stroke-width="0.9"/></g></g><text x="518.0" y="28" text-anchor="middle" font-family="Helvetica,Arial,sans-serif" font-size="22" font-weight="600" letter-spacing="3" fill="#1f3a5f">BACK</text><g transform="translate(372.0 40)"><g transform="translate(146.0 20)"><path d="M 0 14.0 C 14.0 14.0 28.0 8.0 40.0 4.0 L 78.0 16.2 C 78.0 42.2 86.0 66.0 74.0 92.0 C 72.0 104.0 60.0 128.0 60.0 150.0 C 60.9 220.0 65.2 365.0 67.2 400.0 Q 33.6 410.0 0.0 410.0 Q -33.6 410.0 -67.2 400.0 C -65.2 365.0 -60.9 220.0 -60.0 150.0 C -60.0 128.0 -72.0 104.0 -74.0 92.0 C -86.0 66.0 -78.0 42.2 -78.0 16.2 L -40.0 4.0 C -28.0 8.0 -14.0 14.0 0.0 14.0 Z" fill="#fbfcfe" stroke="#1f3a5f" stroke-width="2" stroke-linejoin="round" stroke-linecap="round"/><g><path d="M 78.0 16.2 C 97.2 8.2 121.2 22.2 126.0 91.2 L 122.0 166.2 Q 100.0 174.2 84.0 148.2 L 74.0 92.0 " fill="none" stroke="#1f3a5f" stroke-width="2" stroke-linejoin="round" stroke-linecap="round"/><g transform="scale(-1,1)"><path d="M 78.0 16.2 C 97.2 8.2 121.2 22.2 126.0 91.2 L 122.0 166.2 Q 100.0 174.2 84.0 148.2 L 74.0 92.0 " fill="none" stroke="#1f3a5f" stroke-width="2" stroke-linejoin="round" stroke-linecap="round"/></g></g><path d="M -40.0 32.0 Q 0 14.0 40.0 32.0" fill="none" stroke="#1f3a5f" stroke-width="2" stroke-linecap="round"/><line x1="-61.2" y1="150.0" x2="61.2" y2="150.0" stroke="#5c7aa0" stroke-width="1" stroke-dasharray="7 4"/><path d="M -36.0 20.0 C -45.9 70.0 -45.9 120.0 -28.2 400.0" fill="none" stroke="#5c7aa0" stroke-width="1" stroke-linecap="round"/><path d="M 36.0 20.0 C 45.9 70.0 45.9 120.0 28.2 400.0" fill="none" stroke="#5c7aa0" stroke-width="1" stroke-linecap="round"/><line x1="-66.6" y1="47.0" x2="-66.6" y2="61.0" stroke="#5c7aa0" stroke-width="0.9"/><line x1="-53.6" y1="47.0" x2="-53.6" y2="61.0" stroke="#5c7aa0" stroke-width="0.9"/><line x1="-40.6" y1="47.0" x2="-40.6" y2="61.0" stroke="#5c7aa0" stroke-width="0.9"/><line x1="-27.6" y1="47.0" x2="-27.6" y2="61.0" stroke="#5c7aa0" stroke-width="0.9"/><line x1="-14.6" y1="47.0" x2="-14.6" y2="61.0" stroke="#5c7aa0" stroke-width="0.9"/><line x1="-1.6" y1="47.0" x2="-1.6" y2="61.0" stroke="#5c7aa0" stroke-width="0.9"/><line x1="11.4" y1="47.0" x2="11.4" y2="61.0" stroke="#5c7aa0" stroke-width="0.9"/><line x1="24.4" y1="47.0" x2="24.4" y2="61.0" stroke="#5c7aa0" stroke-width="0.9"/><line x1="37.4" y1="47.0" x2="37.4" y2="61.0" stroke="#5c7aa0" stroke-width="0.9"/><line x1="50.4" y1="47.0" x2="50.4" y2="61.0" stroke="#5c7aa0" stroke-width="0.9"/><line x1="63.4" y1="47.0" x2="63.4" y2="61.0" stroke="#5c7aa0" stroke-width="0.9"/><path d="M -60.0 144.0 Q -24.0 150.0 0 152.0" fill="none" stroke="#5c7aa0" stroke-width="1.4" stroke-linecap="round"/><path d="M 60.0 144.0 Q 24.0 150.0 0 152.0" fill="none" stroke="#5c7aa0" stroke-width="1.4" stroke-linecap="round"/><path d="M -28.8 46.0 Q 0 75.0 28.8 46.0" fill="none" stroke="#5c7aa0" stroke-width="1" stroke-dasharray="4 3"/></g></g><line x1="344.0" y1="40" x2="344.0" y2="470.0" stroke="#e2e9f2" stroke-width="1"/></svg>