<svg xmlns="http://www.w3.org/2000/svg" viewBox="0 0 688.0 358.0" width="100%" role="img"><rect width="688.0" height="358.0" fill="#fff"/><text x="170.0" y="28" text-anchor="middle" font-family="Helvetica,Arial,sans-serif" font-size="22" font-weight="600" letter-spacing="3" fill="#1f3a5f">FRONT</text><g transform="translate(24.0 40)"><g transform="translate(146.0 20)"><path d="M 0 50.0 C 10.1 50.0 36.0 29.3 36.0 4.0 L 78.0 17.4 C 78.0 43.4 86.0 66.0 74.0 92.0 C 72.0 104.0 60.0 128.0 60.0 150.0 C 66.0 198.0 77.5 258.0 77.5 270.0 Q 38.8 274.0 0.0 274.0 Q -38.8 274.0 -77.5 270.0 C -77.5 258.0 -66.0 198.0 -60.0 150.0 C -60.0 128.0 -72.0 104.0 -74.0 92.0 C -86.0 66.0 -78.0 43.4 -78.0 17.4 L -36.0 4.0 C -36.0 29.3 -10.1 50.0 0.0 50.0 Z" fill="#fbfcfe" stroke="#1f3a5f" stroke-width="2" stroke-linejoin="round" stroke-linecap="round"/><g><path d="M 78.0 17.4 C 97.2 9.4 121.2 23.4 126.0 65.4 L 122.0 113.4 Q 100.0 121.4 84.0 101.9 L 74.0 92.0 " fill="none" stroke="#1f3a5f" stroke-width="2" stroke-linejoin="round" stroke-linecap="round"/><g transform="scale(-1,1)"><path d="M 78.0 17.4 C 97.2 9.4 121.2 23.4 126.0 65.4 L 122.0 113.4 Q 100.0 121.4 84.0 101.9 L 74.0 92.0 " fill="none" stroke="#1f3a5f" stroke-width="2" stroke-linejoin="round" stroke-linecap="round"/></g></g><path d="M -32.4 20.0 C -45.9 70.0 -45.9 120.0 -30.0 264.0" fill="none" stroke="#5c7aa0" stroke-width="1" stroke-linecap="round"/><path d="M 32.4 20.0 C 45.9 70.0 45.9 120.0 30.0 264.0" fill="none" stroke="#5c7aa0" stroke-width="1" stroke-linecap="round"/><line x1="-66.6" y1="53.0" x2="-66.6" y2="67.0" stroke="#5c7aa0" stroke-width="0.9"/><line x1="-53.6" y1="53.0" x2="-53.6" y2="67.0" stroke="#5c7aa0" stroke-width="0.9"/><line x1="-40.6" y1="53.0" x2="-40.6" y2="67.0" stroke="#5c7aa0" stroke-width="0.9"/><line x1="-27.6" y1="53.0" x2="-27.6" y2="67.0" stroke="#5c7aa0" stroke-width="0.9"/><line x1="-14.6" y1="53.0" x2="-14.6" y2="67.0" stroke="#5c7aa0" stroke-width="0.9"/><line x1="-1.6" y1="53.0" x2="-1.6" y2="67.0" stroke="#5c7aa0" stroke-width="0.9"/><line x1="11.4" y1="53.0" x2="11.4" y2="67.0" stroke="#5c7aa0" stroke-width="0.9"/><line x1="24.4" y1="53.0" x2="24.4" y2="67.0" stroke="#5c7aa0" stroke-width="0.9"/><line x1="37.4" y1="53.0" x2="37.4" y2="67.0" stroke="#5c7aa0" stroke-width="0.9"/><line x1="50.4" y1="53.0" x2="50.4" y2="67.0" stroke="#5c7aa0" stroke-width="0.9"/><line x1="63.4" y1="53.0" x2="63.4" y2="67.0" stroke="#5c7aa0" stroke-width="0.9"/></g></g><text x="518.0" y="28" text-anchor="middle" font-family="Helvetica,Arial,sans-serif" font-size="22" font-weight="600" letter-spacing="3" fill="#1f3a5f">BACK</text><g transform="translate(372.0 40)"><g transform="translate(146.0 20)"><path d="M 0 17.5 C 12.6 17.5 25.2 9.4 36.0 4.0 L 78.0 17.4 C 78.0 43.4 86.0 66.0 74.0 92.0 C 72.0 104.0 60.0 128.0 60.0 150.0 C 66.0 198.0 77.5 258.0 77.5 270.0 Q 38.8 274.0 0.0 274.0 Q -38.8 274.0 -77.5 270.0 C -77.5 258.0 -66.0 198.0 -60.0 150.0 C -60.0 128.0 -72.0 104.0 -74.0 92.0 C -86.0 66.0 -78.0 43.4 -78.0 17.4 L -36.0 4.0 C -25.2 9.4 -12.6 17.5 0.0 17.5 Z" fill="#fbfcfe" stroke="#1f3a5f" stroke-width="2" stroke-linejoin="round" stroke-linecap="round"/><g><path d="M 78.0 17.4 C 97.2 9.4 121.2 23.4 126.0 65.4 L 122.0 113.4 Q 100.0 121.4 84.0 101.9 L 74.0 92.0 " fill="none" stroke="#1f3a5f" stroke-width="2" stroke-linejoin="round" stroke-linecap="round"/><g transform="scale(-1,1)"><path d="M 78.0 17.4 C 97.2 9.4 121.2 23.4 126.0 65.4 L 122.0 113.4 Q 100.0 121.4 84.0 101.9 L 74.0 92.0 " fill="none" stroke="#1f3a5f" stroke-width="2" stroke-linejoin="round" stroke-linecap="round"/></g></g><path d="M -32.4 20.0 C -45.9 70.0 -45.9 120.0 -30.0 264.0" fill="none" stroke="#5c7aa0" stroke-width="1" stroke-linecap="round"/><path d="M 32.4 20.0 C 45.9 70.0 45.9 120.0 30.0 264.0" fill="none" stroke="#5c7aa0" stroke-width="1" stroke-linecap="round"/><line x1="-66.6" y1="53.0" x2="-66.6" y2="67.0" stroke="#5c7aa0" stroke-width="0.9"/><line x1="-53.6" y1="53.0" x2="-53.6" y2="67.0" stroke="#5c7aa0" stroke-width="0.9"/><line x1="-40.6" y1="53.0" x2="-40.6" y2="67.0" stroke="#5c7aa0" stroke-width="0.9"/><line x1="-27.6" y1="53.0" x2="-27.6" y2="67.0" stroke="#5c7aa0" stroke-width="0.9"/><line x1="-14.6" y1="53.0" x2="-14.6" y2="67.0" stroke="#5c7aa0" stroke-width="0.9"/><line x1="-1.6" y1="53.0" x2="-1.6" y2="67.0" stroke="#5c7aa0" stroke-width="0.9"/><line x1="11.4" y1="53.0" x2="11.4" y2="67.0" stroke="#5c7aa0" stroke-width="0.9"/><line x1="24.4" y1="53.0" x2="24.4" y2="67.0" stroke="#5c7aa0" stroke-width="0.9"/><line x1="37.4" y1="53.0" x2="37.4" y2="67.0" stroke="#5c7aa0" stroke-width="0.9"/><line x1="50.4" y1="53.0" x2="50.4" y2="67.0" stroke="#5c7aa0" stroke-width="0.9"/><line x1="63.4" y1="53.0" x2="63.4" y2="67.0" stroke="#5c7aa0" stroke-width="0.9"/><path d="M -60.0 226.2 Q -24.0 232.2 0 234.2" fill="none" stroke="#5c7aa0" stroke-width="1.4" stroke-linecap="round"/><path d="M 60.0 226.2 Q 24.0 232.2 0 234.2" fill="none" stroke="#5c7aa0" stroke-width="1.4" stroke-linecap="round"/></g></g><line x1="344.0" y1="40" x2="344.0" y2="334.0" stroke="#e2e9f2" stroke-width="1"/></svg>