0
SECTION
2
HEADER
9
$ACADVER
1
AC1009
9
$INSUNITS
70
4
9
$EXTMIN
10
-10.0000
20
-465.0017
9
$EXTMAX
10
397.0000
20
35.7334
0
ENDSEC
0
SECTION
2
TABLES
0
TABLE
2
LAYER
70
6
0
LAYER
2
1
70
0
62
7
6
CONTINUOUS
0
LAYER
2
8
70
0
62
1
6
CONTINUOUS
0
LAYER
2
7
70
0
62
3
6
CONTINUOUS
0
LAYER
2
4
70
0
62
5
6
CONTINUOUS
0
LAYER
2
11
70
0
62
2
6
CONTINUOUS
0
LAYER
2
15
70
0
62
4
6
CONTINUOUS
0
ENDTAB
0
ENDSEC
0
SECTION
2
ENTITIES
0
POLYLINE
8
1
66
1
70
1
0
VERTEX
8
1
10
0.0000
20
14.9390
30
0.0000
0
VERTEX
8
1
10
46.0100
20
15.7153
30
0.0000
0
VERTEX
8
1
10
88.2249
20
17.5545
30
0.0000
0
VERTEX
8
1
10
126.3649
20
20.0587
30
0.0000
0
VERTEX
8
1
10
195.9538
20
25.7508
30
0.0000
0
VERTEX
8
1
10
226.3151
20
27.7334
30
0.0000
0
VERTEX
8
1
10
232.9839
20
-0.1753
30
0.0000
0
VERTEX
8
1
10
238.1216
20
-25.2904
30
0.0000
0
VERTEX
8
1
10
242.6673
20
-51.7509
30
0.0000
0
VERTEX
8
1
10
246.5708
20
-79.1825
30
0.0000
0
VERTEX
8
1
10
249.7780
20
-107.2060
30
0.0000
0
VERTEX
8
1
10
252.2324
20
-135.4398
30
0.0000
0
VERTEX
8
1
10
253.8757
20
-163.5028
30
0.0000
0
VERTEX
8
1
10
254.6888
20
-198.0484
30
0.0000
0
VERTEX
8
1
10
318.4097
20
-444.4361
30
0.0000
0
VERTEX
8
1
10
272.2918
20
-451.0077
30
0.0000
0
VERTEX
8
1
10
243.8020
20
-454.4887
30
0.0000
0
VERTEX
8
1
10
202.9968
20
-458.5477
30
0.0000
0
VERTEX
8
1
10
164.2084
20
-461.3991
30
0.0000
0
VERTEX
8
1
10
127.1021
20
-463.2554
30
0.0000
0
VERTEX
8
1
10
91.3431
20
-464.3299
30
0.0000
0
VERTEX
8
1
10
56.5948
20
-464.8367
30
0.0000
0
VERTEX
8
1
10
0.0000
20
-465.0017
30
0.0000
0
SEQEND
0
POLYLINE
8
8
66
1
70
1
0
VERTEX
8
8
10
0.0000
20
-0.0000
30
0.0000
0
VERTEX
8
8
10
11.9643
20
0.0488
30
0.0000
0
VERTEX
8
8
10
23.7002
20
0.1903
30
0.0000
0
VERTEX
8
8
10
35.2033
20
0.4172
30
0.0000
0
VERTEX
8
8
10
46.4686
20
0.7222
30
0.0000
0
VERTEX
8
8
10
57.4917
20
1.0981
30
0.0000
0
VERTEX
8
8
10
68.2679
20
1.5375
30
0.0000
0
VERTEX
8
8
10
78.7924
20
2.0332
30
0.0000
0
VERTEX
8
8
10
89.0607
20
2.5778
30
0.0000
0
VERTEX
8
8
10
99.0681
20
3.1641
30
0.0000
0
VERTEX
8
8
10
108.8099
20
3.7847
30
0.0000
0
VERTEX
8
8
10
118.2815
20
4.4325
30
0.0000
0
VERTEX
8
8
10
127.4781
20
5.1000
30
0.0000
0
VERTEX
8
8
10
136.3952
20
5.7800
30
0.0000
0
VERTEX
8
8
10
145.0281
20
6.4653
30
0.0000
0
VERTEX
8
8
10
153.3721
20
7.1484
30
0.0000
0
VERTEX
8
8
10
161.4226
20
7.8222
30
0.0000
0
VERTEX
8
8
10
169.1749
20
8.4793
30
0.0000
0
VERTEX
8
8
10
176.6243
20
9.1125
30
0.0000
0
VERTEX
8
8
10
183.7662
20
9.7144
30
0.0000
0
VERTEX
8
8
10
190.5959
20
10.2778
30
0.0000
0
VERTEX
8
8
10
197.1089
20
10.7953
30
0.0000
0
VERTEX
8
8
10
203.3003
20
11.2597
30
0.0000
0
VERTEX
8
8
10
209.1655
20
11.6637
30
0.0000
0
VERTEX
8
8
10
214.7000
20
12.0000
30
0.0000
0
VERTEX
8
8
10
216.5486
20
4.3879
30
0.0000
0
VERTEX
8
8
10
218.3429
20
-3.4387
30
0.0000
0
VERTEX
8
8
10
220.0809
20
-11.4648
30
0.0000
0
VERTEX
8
8
10
221.7602
20
-19.6759
30
0.0000
0
VERTEX
8
8
10
223.3787
20
-28.0571
30
0.0000
0
VERTEX
8
8
10
224.9344
20
-36.5938
30
0.0000
0
VERTEX
8
8
10
226.4249
20
-45.2710
30
0.0000
0
VERTEX
8
8
10
227.8481
20
-54.0741
30
0.0000
0
VERTEX
8
8
10
229.2020
20
-62.9883
30
0.0000
0
VERTEX
8
8
10
230.4841
20
-71.9988
30
0.0000
0
VERTEX
8
8
10
231.6925
20
-81.0910
30
0.0000
0
VERTEX
8
8
10
232.8250
20
-90.2500
30
0.0000
0
VERTEX
8
8
10
233.8793
20
-99.4611
30
0.0000
0
VERTEX
8
8
10
234.8534
20
-108.7095
30
0.0000
0
VERTEX
8
8
10
235.7449
20
-117.9805
30
0.0000
0
VERTEX
8
8
10
236.5519
20
-127.2593
30
0.0000
0
VERTEX
8
8
10
237.2720
20
-136.5311
30
0.0000
0
VERTEX
8
8
10
237.9031
20
-145.7812
30
0.0000
0
VERTEX
8
8
10
238.4431
20
-154.9949
30
0.0000
0
VERTEX
8
8
10
238.8898
20
-164.1574
30
0.0000
0
VERTEX
8
8
10
239.2410
20
-173.2539
30
0.0000
0
VERTEX
8
8
10
239.4946
20
-182.2697
30
0.0000
0
VERTEX
8
8
10
239.6483
20
-191.1900
30
0.0000
0
VERTEX
8
8
10
239.7000
20
-200.0000
30
0.0000
0
VERTEX
8
8
10
299.7000
20
-432.0000
30
0.0000
0
VERTEX
8
8
10
284.8689
20
-434.1576
30
0.0000
0
VERTEX
8
8
10
270.3370
20
-436.1354
30
0.0000
0
VERTEX
8
8
10
256.0913
20
-437.9414
30
0.0000
0
VERTEX
8
8
10
242.1188
20
-439.5833
30
0.0000
0
VERTEX
8
8
10
228.4063
20
-441.0690
30
0.0000
0
VERTEX
8
8
10
214.9411
20
-442.4062
30
0.0000
0
VERTEX
8
8
10
201.7100
20
-443.6029
30
0.0000
0
VERTEX
8
8
10
188.7000
20
-444.6667
30
0.0000
0
VERTEX
8
8
10
175.8981
20
-445.6055
30
0.0000
0
VERTEX
8
8
10
163.2914
20
-446.4271
30
0.0000
0
VERTEX
8
8
10
150.8668
20
-447.1393
30
0.0000
0
VERTEX
8
8
10
138.6113
20
-447.7500
30
0.0000
0
VERTEX
8
8
10
126.5118
20
-448.2669
30
0.0000
0
VERTEX
8
8
10
114.5555
20
-448.6979
30
0.0000
0
VERTEX
8
8
10
102.7292
20
-449.0508
30
0.0000
0
VERTEX
8
8
10
91.0200
20
-449.3333
30
0.0000
0
VERTEX
8
8
10
79.4149
20
-449.5534
30
0.0000
0
VERTEX
8
8
10
67.9008
20
-449.7188
30
0.0000
0
VERTEX
8
8
10
56.4647
20
-449.8372
30
0.0000
0
VERTEX
8
8
10
45.0937
20
-449.9167
30
0.0000
0
VERTEX
8
8
10
33.7748
20
-449.9648
30
0.0000
0
VERTEX
8
8
10
22.4948
20
-449.9896
30
0.0000
0
VERTEX
8
8
10
11.2409
20
-449.9987
30
0.0000
0
VERTEX
8
8
10
0.0000
20
-450.0000
30
0.0000
0
VERTEX
8
8
10
0.0000
20
-0.0000
30
0.0000
0
SEQEND
0
POLYLINE
8
11
66
1
70
0
0
VERTEX
8
11
10
62.5167
20
2.0000
30
0.0000
0
VERTEX
8
11
10
71.5667
20
-90.0000
30
0.0000
0
VERTEX
8
11
10
80.6167
20
2.0000
30
0.0000
0
SEQEND
0
POLYLINE
8
11
66
1
70
0
0
VERTEX
8
11
10
134.0833
20
4.0000
30
0.0000
0
VERTEX
8
11
10
143.1333
20
-73.8000
30
0.0000
0
VERTEX
8
11
10
152.1833
20
4.0000
30
0.0000
0
SEQEND
0
POLYLINE
8
7
66
1
70
0
0
VERTEX
8
7
10
40.0000
20
-200.0000
30
0.0000
0
VERTEX
8
7
10
40.0000
20
-390.0000
30
0.0000
0
SEQEND
0
TEXT
8
15
10
0.0000
20
35.7334
30
0.0000
40
12.0000
1
Front
0
POLYLINE
8
1
66
1
70
1
0
VERTEX
8
1
10
0.0000
20
14.9390
30
0.0000
0
VERTEX
8
1
10
46.0100
20
15.7153
30
0.0000
0
VERTEX
8
1
10
88.2249
20
17.5545
30
0.0000
0
VERTEX
8
1
10
126.3649
20
20.0587
30
0.0000
0
VERTEX
8
1
10
195.9538
20
25.7508
30
0.0000
0
VERTEX
8
1
10
226.3151
20
27.7334
30
0.0000
0
VERTEX
8
1
10
232.9839
20
-0.1753
30
0.0000
0
VERTEX
8
1
10
238.1216
20
-25.2904
30
0.0000
0
VERTEX
8
1
10
242.6673
20
-51.7509
30
0.0000
0
VERTEX
8
1
10
246.5708
20
-79.1825
30
0.0000
0
VERTEX
8
1
10
249.7780
20
-107.2060
30
0.0000
0
VERTEX
8
1
10
252.2324
20
-135.4398
30
0.0000
0
VERTEX
8
1
10
253.8757
20
-163.5028
30
0.0000
0
VERTEX
8
1
10
254.6888
20
-198.0484
30
0.0000
0
VERTEX
8
1
10
318.4097
20
-444.4361
30
0.0000
0
VERTEX
8
1
10
272.2918
20
-451.0077
30
0.0000
0
VERTEX
8
1
10
243.8020
20
-454.4887
30
0.0000
0
VERTEX
8
1
10
202.9968
20
-458.5477
30
0.0000
0
VERTEX
8
1
10
164.2084
20
-461.3991
30
0.0000
0
VERTEX
8
1
10
127.1021
20
-463.2554
30
0.0000
0
VERTEX
8
1
10
91.3431
20
-464.3299
30
0.0000
0
VERTEX
8
1
10
56.5948
20
-464.8367
30
0.0000
0
VERTEX
8
1
10
0.0000
20
-465.0017
30
0.0000
0
SEQEND
0
POLYLINE
8
8
66
1
70
1
0
VERTEX
8
8
10
0.0000
20
-0.0000
30
0.0000
0
VERTEX
8
8
10
11.9643
20
0.0488
30
0.0000
0
VERTEX
8
8
10
23.7002
20
0.1903
30
0.0000
0
VERTEX
8
8
10
35.2033
20
0.4172
30
0.0000
0
VERTEX
8
8
10
46.4686
20
0.7222
30
0.0000
0
VERTEX
8
8
10
57.4917
20
1.0981
30
0.0000
0
VERTEX
8
8
10
68.2679
20
1.5375
30
0.0000
0
VERTEX
8
8
10
78.7924
20
2.0332
30
0.0000
0
VERTEX
8
8
10
89.0607
20
2.5778
30
0.0000
0
VERTEX
8
8
10
99.0681
20
3.1641
30
0.0000
0
VERTEX
8
8
10
108.8099
20
3.7847
30
0.0000
0
VERTEX
8
8
10
118.2815
20
4.4325
30
0.0000
0
VERTEX
8
8
10
127.4781
20
5.1000
30
0.0000
0
VERTEX
8
8
10
136.3952
20
5.7800
30
0.0000
0
VERTEX
8
8
10
145.0281
20
6.4653
30
0.0000
0
VERTEX
8
8
10
153.3721
20
7.1484
30
0.0000
0
VERTEX
8
8
10
161.4226
20
7.8222
30
0.0000
0
VERTEX
8
8
10
169.1749
20
8.4793
30
0.0000
0
VERTEX
8
8
10
176.6243
20
9.1125
30
0.0000
0
VERTEX
8
8
10
183.7662
20
9.7144
30
0.0000
0
VERTEX
8
8
10
190.5959
20
10.2778
30
0.0000
0
VERTEX
8
8
10
197.1089
20
10.7953
30
0.0000
0
VERTEX
8
8
10
203.3003
20
11.2597
30
0.0000
0
VERTEX
8
8
10
209.1655
20
11.6637
30
0.0000
0
VERTEX
8
8
10
214.7000
20
12.0000
30
0.0000
0
VERTEX
8
8
10
216.5486
20
4.3879
30
0.0000
0
VERTEX
8
8
10
218.3429
20
-3.4387
30
0.0000
0
VERTEX
8
8
10
220.0809
20
-11.4648
30
0.0000
0
VERTEX
8
8
10
221.7602
20
-19.6759
30
0.0000
0
VERTEX
8
8
10
223.3787
20
-28.0571
30
0.0000
0
VERTEX
8
8
10
224.9344
20
-36.5938
30
0.0000
0
VERTEX
8
8
10
226.4249
20
-45.2710
30
0.0000
0
VERTEX
8
8
10
227.8481
20
-54.0741
30
0.0000
0
VERTEX
8
8
10
229.2020
20
-62.9883
30
0.0000
0
VERTEX
8
8
10
230.4841
20
-71.9988
30
0.0000
0
VERTEX
8
8
10
231.6925
20
-81.0910
30
0.0000
0
VERTEX
8
8
10
232.8250
20
-90.2500
30
0.0000
0
VERTEX
8
8
10
233.8793
20
-99.4611
30
0.0000
0
VERTEX
8
8
10
234.8534
20
-108.7095
30
0.0000
0
VERTEX
8
8
10
235.7449
20
-117.9805
30
0.0000
0
VERTEX
8
8
10
236.5519
20
-127.2593
30
0.0000
0
VERTEX
8
8
10
237.2720
20
-136.5311
30
0.0000
0
VERTEX
8
8
10
237.9031
20
-145.7812
30
0.0000
0
VERTEX
8
8
10
238.4431
20
-154.9949
30
0.0000
0
VERTEX
8
8
10
238.8898
20
-164.1574
30
0.0000
0
VERTEX
8
8
10
239.2410
20
-173.2539
30
0.0000
0
VERTEX
8
8
10
239.4946
20
-182.2697
30
0.0000
0
VERTEX
8
8
10
239.6483
20
-191.1900
30
0.0000
0
VERTEX
8
8
10
239.7000
20
-200.0000
30
0.0000
0
VERTEX
8
8
10
299.7000
20
-432.0000
30
0.0000
0
VERTEX
8
8
10
284.8689
20
-434.1576
30
0.0000
0
VERTEX
8
8
10
270.3370
20
-436.1354
30
0.0000
0
VERTEX
8
8
10
256.0913
20
-437.9414
30
0.0000
0
VERTEX
8
8
10
242.1188
20
-439.5833
30
0.0000
0
VERTEX
8
8
10
228.4063
20
-441.0690
30
0.0000
0
VERTEX
8
8
10
214.9411
20
-442.4062
30
0.0000
0
VERTEX
8
8
10
201.7100
20
-443.6029
30
0.0000
0
VERTEX
8
8
10
188.7000
20
-444.6667
30
0.0000
0
VERTEX
8
8
10
175.8981
20
-445.6055
30
0.0000
0
VERTEX
8
8
10
163.2914
20
-446.4271
30
0.0000
0
VERTEX
8
8
10
150.8668
20
-447.1393
30
0.0000
0
VERTEX
8
8
10
138.6113
20
-447.7500
30
0.0000
0
VERTEX
8
8
10
126.5118
20
-448.2669
30
0.0000
0
VERTEX
8
8
10
114.5555
20
-448.6979
30
0.0000
0
VERTEX
8
8
10
102.7292
20
-449.0508
30
0.0000
0
VERTEX
8
8
10
91.0200
20
-449.3333
30
0.0000
0
VERTEX
8
8
10
79.4149
20
-449.5534
30
0.0000
0
VERTEX
8
8
10
67.9008
20
-449.7188
30
0.0000
0
VERTEX
8
8
10
56.4647
20
-449.8372
30
0.0000
0
VERTEX
8
8
10
45.0937
20
-449.9167
30
0.0000
0
VERTEX
8
8
10
33.7748
20
-449.9648
30
0.0000
0
VERTEX
8
8
10
22.4948
20
-449.9896
30
0.0000
0
VERTEX
8
8
10
11.2409
20
-449.9987
30
0.0000
0
VERTEX
8
8
10
0.0000
20
-450.0000
30
0.0000
0
VERTEX
8
8
10
0.0000
20
-0.0000
30
0.0000
0
SEQEND
0
POLYLINE
8
11
66
1
70
0
0
VERTEX
8
11
10
62.5167
20
2.0000
30
0.0000
0
VERTEX
8
11
10
71.5667
20
-130.0000
30
0.0000
0
VERTEX
8
11
10
80.6167
20
2.0000
30
0.0000
0
SEQEND
0
POLYLINE
8
11
66
1
70
0
0
VERTEX
8
11
10
134.0833
20
4.0000
30
0.0000
0
VERTEX
8
11
10
143.1333
20
-106.6000
30
0.0000
0
VERTEX
8
11
10
152.1833
20
4.0000
30
0.0000
0
SEQEND
0
POLYLINE
8
7
66
1
70
0
0
VERTEX
8
7
10
40.0000
20
-200.0000
30
0.0000
0
VERTEX
8
7
10
40.0000
20
-390.0000
30
0.0000
0
SEQEND
0
TEXT
8
15
10
0.0000
20
35.7334
30
0.0000
40
12.0000
1
Back
0
POLYLINE
8
1
66
1
70
1
0
VERTEX
8
1
10
-10.0000
20
10.0000
30
0.0000
0
VERTEX
8
1
10
397.0000
20
10.0000
30
0.0000
0
VERTEX
8
1
10
397.0000
20
-90.0000
30
0.0000
0
VERTEX
8
1
10
-10.0000
20
-90.0000
30
0.0000
0
SEQEND
0
POLYLINE
8
8
66
1
70
1
0
VERTEX
8
8
10
0.0000
20
-0.0000
30
0.0000
0
VERTEX
8
8
10
387.0000
20
-0.0000
30
0.0000
0
VERTEX
8
8
10
387.0000
20
-80.0000
30
0.0000
0
VERTEX
8
8
10
0.0000
20
-80.0000
30
0.0000
0
SEQEND
0
POLYLINE
8
11
66
1
70
0
0
VERTEX
8
11
10
0.0000
20
-40.0000
30
0.0000
0
VERTEX
8
11
10
387.0000
20
-40.0000
30
0.0000
0
SEQEND
0
POLYLINE
8
7
66
1
70
0
0
VERTEX
8
7
10
30.0000
20
-40.0000
30
0.0000
0
VERTEX
8
7
10
357.0000
20
-40.0000
30
0.0000
0
SEQEND
0
TEXT
8
15
10
-10.0000
20
18.0000
30
0.0000
40
12.0000
1
Waistband
0
ENDSEC
0
EOF
